<svg id="visual" viewBox="0 0 900 600" width="900" height="600" xmlns="http://www.w3.org/2000/svg" xmlns:xlink="http://www.w3.org/1999/xlink" version="1.1"><rect width="900" height="600" fill="#ffffff"></rect><g><g transform="translate(364 384)"><path d="M0 -97.5L97.5 0L0 97.5L-97.5 0Z" fill="none" stroke="#df7d80" stroke-width="2"></path></g><g transform="translate(163 334)"><path d="M0 -72L72 0L0 72L-72 0Z" fill="none" stroke="#df7d80" stroke-width="2"></path></g><g transform="translate(272 32)"><path d="M0 -49L49 0L0 49L-49 0Z" fill="none" stroke="#df7d80" stroke-width="2"></path></g><g transform="translate(753 78)"><path d="M0 -61L61 0L0 61L-61 0Z" fill="none" stroke="#df7d80" stroke-width="2"></path></g><g transform="translate(228 583)"><path d="M0 -30L30 0L0 30L-30 0Z" fill="none" stroke="#df7d80" stroke-width="2"></path></g><g transform="translate(669 338)"><path d="M0 -29L29 0L0 29L-29 0Z" fill="none" stroke="#df7d80" stroke-width="2"></path></g><g transform="translate(14 152)"><path d="M0 -33L33 0L0 33L-33 0Z" fill="none" stroke="#df7d80" stroke-width="2"></path></g><g transform="translate(473 138)"><path d="M0 -16L16 0L0 16L-16 0Z" fill="none" stroke="#df7d80" stroke-width="2"></path></g><g transform="translate(862 371)"><path d="M0 -69L69 0L0 69L-69 0Z" fill="none" stroke="#df7d80" stroke-width="2"></path></g><g transform="translate(695 557)"><path d="M0 -68L68 0L0 68L-68 0Z" fill="none" stroke="#df7d80" stroke-width="2"></path></g><g transform="translate(460 572)"><path d="M0 -22L22 0L0 22L-22 0Z" fill="none" stroke="#df7d80" stroke-width="2"></path></g><g transform="translate(36 540)"><path d="M0 -55L55 0L0 55L-55 0Z" fill="none" stroke="#df7d80" stroke-width="2"></path></g></g></svg>